<?xml version="1.0" encoding="utf-8"?>
<!-- Generator: Adobe Illustrator 15.1.0, SVG Export Plug-In . SVG Version: 6.00 Build 0)  -->
<!DOCTYPE svg PUBLIC "-//W3C//DTD SVG 1.1//EN" "http://www.w3.org/Graphics/SVG/1.1/DTD/svg11.dtd">
<svg version="1.1" id="Layer_1" xmlns="http://www.w3.org/2000/svg" xmlns:xlink="http://www.w3.org/1999/xlink" x="0px" y="0px"
	 width="954.566px" height="448.081px" viewBox="0 0 954.566 448.081" enable-background="new 0 0 954.566 448.081"
	 xml:space="preserve">
<g>
	<path fill="#E6E7E8" stroke="#000000" stroke-width="4" stroke-miterlimit="10" d="M-2786.937,102.425V53.78h291.876v48.646
		h-97.292v291.875h-97.291V102.425H-2786.937z"/>
	<path fill="#E6E7E8" stroke="#000000" stroke-width="4" stroke-miterlimit="10" d="M-2397.77,345.654V297.01h-48.647V151.073
		h48.647v-48.648h48.645V53.78h194.586v48.646h48.645v48.648h-97.291v-48.648h-97.293v48.648h-48.646V297.01h48.646v48.645h97.293
		V297.01h97.291v48.645h-48.645v48.646h-194.586v-48.646H-2397.77z"/>
</g>
<g>
	<path fill="#FFFFFF" stroke="#000000" stroke-width="3" stroke-miterlimit="10" d="M-2786.293,142.693v-11.144h66.861v11.144
		h-22.287v66.861h-22.287v-66.861H-2786.293z"/>
	<path fill="#FFFFFF" stroke="#000000" stroke-width="3" stroke-miterlimit="10" d="M-2708.288,198.41v-66.861h22.287v66.861h33.43
		v-66.861h22.287v66.861h-11.144v11.144h-55.717V198.41H-2708.288z"/>
	<path fill="#FFFFFF" stroke="#000000" stroke-width="3" stroke-miterlimit="10" d="M-2596.854,131.549v11.144h11.144v11.144h11.144
		v-11.144h11.144v-11.144h22.287v78.004h-22.287v-33.431h-11.144v11.144h-11.144v-11.144h-11.144v33.431h-22.287v-78.004H-2596.854z
		"/>
	<path fill="#FFFFFF" stroke="#000000" stroke-width="3" stroke-miterlimit="10" d="M-2463.132,131.549v11.144h11.144v22.287
		h-11.144v11.143h11.144v22.287h-11.144v11.144h-66.86v-78.004H-2463.132z M-2507.705,164.98h33.43v-22.287h-33.43V164.98z
		 M-2507.705,198.41h33.43v-22.287h-33.43V198.41z"/>
	<path fill="#FFFFFF" stroke="#000000" stroke-width="3" stroke-miterlimit="10" d="M-2418.558,131.549v66.861h55.718v11.144
		h-78.005v-78.004H-2418.558z"/>
	<path fill="#FFFFFF" stroke="#000000" stroke-width="3" stroke-miterlimit="10" d="M-2318.266,198.41v-55.717h-22.287v-11.144
		h66.861v11.144h-22.287v55.717h22.287v11.144h-66.861V198.41H-2318.266z"/>
	<path fill="#FFFFFF" stroke="#000000" stroke-width="3" stroke-miterlimit="10" d="M-2240.262,131.549v11.144h11.144v11.144h11.144
		v11.144h11.144v-33.431h22.286v78.004h-22.286V198.41h-11.144v-11.144h-11.144v-11.144h-11.144v33.431h-22.287v-78.004H-2240.262z"
		/>
	<path fill="#FFFFFF" stroke="#000000" stroke-width="3" stroke-miterlimit="10" d="M-2162.258,198.41v-11.144h-11.144v-33.43
		h11.144v-11.144h11.144v-11.144h55.718v11.144h-44.574v11.144h-11.144v33.43h11.144v11.144h22.287v-22.287h-11.144V164.98h33.431
		v44.574h-55.718V198.41H-2162.258z"/>
	<path fill="#FFFFFF" stroke="#000000" stroke-width="3" stroke-miterlimit="10" d="M-2875.44,305.389v-11.145h-11.144v-33.43
		h11.144V249.67h11.144v-11.144h44.573v11.144h11.144v11.144h-22.287V249.67h-22.287v11.144h-11.143v33.43h11.143v11.145h22.287
		v-11.145h22.287v11.145h-11.144v11.143h-44.573v-11.143H-2875.44z"/>
	<path fill="#FFFFFF" stroke="#000000" stroke-width="3" stroke-miterlimit="10" d="M-2786.293,260.814V249.67h11.144v-11.144
		h33.431v11.144h11.144v11.144h11.144v55.717h-22.287v-22.287h-33.431v22.287h-22.287v-55.717H-2786.293z M-2775.149,283.102h33.431
		v-22.287h-11.144V249.67h-11.144v11.144h-11.144V283.102z"/>
	<path fill="#FFFFFF" stroke="#000000" stroke-width="3" stroke-miterlimit="10" d="M-2686.001,238.527v66.862h55.717v11.143
		h-78.004v-78.004H-2686.001z"/>
	<path fill="#FFFFFF" stroke="#000000" stroke-width="3" stroke-miterlimit="10" d="M-2607.997,305.389v-11.145h-11.144v-33.43
		h11.144V249.67h11.144v-11.144h44.574v11.144h11.144v11.144h-22.287V249.67h-22.287v11.144h-11.144v33.43h11.144v11.145h22.287
		v-11.145h22.287v11.145h-11.144v11.143h-44.574v-11.143H-2607.997z"/>
	<path fill="#FFFFFF" stroke="#000000" stroke-width="3" stroke-miterlimit="10" d="M-2529.992,305.389v-66.862h22.287v66.862h33.43
		v-66.862h22.287v66.862h-11.144v11.143h-55.717v-11.143H-2529.992z"/>
	<path fill="#FFFFFF" stroke="#000000" stroke-width="3" stroke-miterlimit="10" d="M-2418.558,238.527v66.862h55.718v11.143
		h-78.005v-78.004H-2418.558z"/>
	<path fill="#FFFFFF" stroke="#000000" stroke-width="3" stroke-miterlimit="10" d="M-2340.553,260.814V249.67h11.144v-11.144
		h33.431v11.144h11.144v11.144h11.144v55.717h-22.287v-22.287h-33.431v22.287h-22.287v-55.717H-2340.553z M-2329.409,283.102h33.431
		v-22.287h-11.144V249.67h-11.144v11.144h-11.144V283.102z"/>
	<path fill="#FFFFFF" stroke="#000000" stroke-width="3" stroke-miterlimit="10" d="M-2251.405,249.67v-11.144h66.86v11.144h-22.286
		v66.861h-22.287V249.67H-2251.405z"/>
	<path fill="#FFFFFF" stroke="#000000" stroke-width="3" stroke-miterlimit="10" d="M-2173.401,305.389V249.67h11.144v-11.144
		h55.718v11.144h11.144v55.718h-11.144v11.143h-55.718v-11.143H-2173.401z M-2151.114,305.389h33.431V249.67h-33.431V305.389z"/>
	<path fill="#FFFFFF" stroke="#000000" stroke-width="3" stroke-miterlimit="10" d="M-2017.392,238.527v11.144h11.144v33.431
		h-22.287v11.143h11.144v11.145h11.144v11.143h-33.431v-11.143h-11.144v-11.145h-11.144v22.287h-22.287v-78.004H-2017.392z
		 M-2061.966,283.102h22.287v-11.145h11.144V249.67h-33.431V283.102z"/>
</g>
<g>
	
		<image overflow="visible" opacity="0.75" width="2980" height="1561" xlink:href="1B8E4F26.png"  transform="matrix(0.24 0 0 0.24 -1822.3711 43.7803)">
	</image>
	<g>
		<g>
			<path fill="#E6E7E8" stroke="#000000" stroke-width="4" stroke-miterlimit="10" d="M-1812.371,102.426V53.78h291.877v48.646
				h-97.293v291.875h-97.291V102.426H-1812.371z"/>
			<path fill="#E6E7E8" stroke="#000000" stroke-width="4" stroke-miterlimit="10" d="M-1423.203,345.654V297.01h-48.646V151.073
				h48.646v-48.647h48.645V53.78h194.586v48.646h48.645v48.647h-97.291v-48.647h-97.293v48.647h-48.646V297.01h48.646v48.645h97.293
				V297.01h97.291v48.645h-48.645v48.646h-194.586v-48.646H-1423.203z"/>
		</g>
	</g>
</g>
<g>
	
		<image overflow="visible" opacity="0.75" width="3806" height="909" xlink:href="1B8E4F2A.png"  transform="matrix(0.24 0 0 0.24 -1909.627 110.5576)">
	</image>
	<g>
		<g>
			<path fill="#FFFFFF" stroke="#000000" stroke-width="3" stroke-miterlimit="10" d="M-1799.836,131.202v-11.145h66.861v11.145
				h-22.287v66.86h-22.287v-66.86H-1799.836z"/>
			<path fill="#FFFFFF" stroke="#000000" stroke-width="3" stroke-miterlimit="10" d="M-1721.831,186.919v-66.861h22.287v66.861
				h33.43v-66.861h22.287v66.861h-11.144v11.144h-55.717v-11.144H-1721.831z"/>
			<path fill="#FFFFFF" stroke="#000000" stroke-width="3" stroke-miterlimit="10" d="M-1610.396,120.058v11.145h11.144v11.143
				h11.144v-11.143h11.144v-11.145h22.287v78.005h-22.287v-33.431h-11.144v11.144h-11.144v-11.144h-11.144v33.431h-22.287v-78.005
				H-1610.396z"/>
			<path fill="#FFFFFF" stroke="#000000" stroke-width="3" stroke-miterlimit="10" d="M-1476.675,120.058v11.145h11.144v22.287
				h-11.144v11.143h11.144v22.287h-11.144v11.144h-66.86v-78.005H-1476.675z M-1521.248,153.489h33.43v-22.287h-33.43V153.489z
				 M-1521.248,186.919h33.43v-22.287h-33.43V186.919z"/>
			<path fill="#FFFFFF" stroke="#000000" stroke-width="3" stroke-miterlimit="10" d="M-1432.101,120.058v66.861h55.718v11.144
				h-78.005v-78.005H-1432.101z"/>
			<path fill="#FFFFFF" stroke="#000000" stroke-width="3" stroke-miterlimit="10" d="M-1331.809,186.919v-55.717h-22.287v-11.145
				h66.861v11.145h-22.287v55.717h22.287v11.144h-66.861v-11.144H-1331.809z"/>
			<path fill="#FFFFFF" stroke="#000000" stroke-width="3" stroke-miterlimit="10" d="M-1253.805,120.058v11.145h11.144v11.143
				h11.144v11.145h11.144v-33.432h22.286v78.005h-22.286v-11.144h-11.144v-11.144h-11.144v-11.144h-11.144v33.431h-22.287v-78.005
				H-1253.805z"/>
			<path fill="#FFFFFF" stroke="#000000" stroke-width="3" stroke-miterlimit="10" d="M-1175.801,186.919v-11.144h-11.144v-33.431
				h11.144v-11.143h11.144v-11.145h55.718v11.145h-44.574v11.143h-11.144v33.431h11.144v11.144h22.287v-22.287h-11.144v-11.143
				h33.431v44.573h-55.718v-11.144H-1175.801z"/>
			<path fill="#FFFFFF" stroke="#000000" stroke-width="3" stroke-miterlimit="10" d="M-1888.983,293.897v-11.145h-11.144v-33.43
				h11.144v-11.145h11.144v-11.143h44.573v11.143h11.144v11.145h-22.287v-11.145h-22.287v11.145h-11.143v33.43h11.143v11.145h22.287
				v-11.145h22.287v11.145h-11.144v11.143h-44.573v-11.143H-1888.983z"/>
			<path fill="#FFFFFF" stroke="#000000" stroke-width="3" stroke-miterlimit="10" d="M-1799.836,249.323v-11.145h11.144v-11.143
				h33.431v11.143h11.144v11.145h11.144v55.717h-22.287v-22.287h-33.431v22.287h-22.287v-55.717H-1799.836z M-1788.692,271.61
				h33.431v-22.287h-11.144v-11.145h-11.144v11.145h-11.144V271.61z"/>
			<path fill="#FFFFFF" stroke="#000000" stroke-width="3" stroke-miterlimit="10" d="M-1699.544,227.036v66.861h55.717v11.143
				h-78.004v-78.004H-1699.544z"/>
			<path fill="#FFFFFF" stroke="#000000" stroke-width="3" stroke-miterlimit="10" d="M-1621.54,293.897v-11.145h-11.144v-33.43
				h11.144v-11.145h11.144v-11.143h44.574v11.143h11.144v11.145h-22.287v-11.145h-22.287v11.145h-11.144v33.43h11.144v11.145h22.287
				v-11.145h22.287v11.145h-11.144v11.143h-44.574v-11.143H-1621.54z"/>
			<path fill="#FFFFFF" stroke="#000000" stroke-width="3" stroke-miterlimit="10" d="M-1543.535,293.897v-66.861h22.287v66.861
				h33.43v-66.861h22.287v66.861h-11.144v11.143h-55.717v-11.143H-1543.535z"/>
			<path fill="#FFFFFF" stroke="#000000" stroke-width="3" stroke-miterlimit="10" d="M-1432.101,227.036v66.861h55.718v11.143
				h-78.005v-78.004H-1432.101z"/>
			<path fill="#FFFFFF" stroke="#000000" stroke-width="3" stroke-miterlimit="10" d="M-1354.096,249.323v-11.145h11.144v-11.143
				h33.431v11.143h11.144v11.145h11.144v55.717h-22.287v-22.287h-33.431v22.287h-22.287v-55.717H-1354.096z M-1342.952,271.61
				h33.431v-22.287h-11.144v-11.145h-11.144v11.145h-11.144V271.61z"/>
			<path fill="#FFFFFF" stroke="#000000" stroke-width="3" stroke-miterlimit="10" d="M-1264.948,238.179v-11.143h66.86v11.143
				h-22.286v66.861h-22.287v-66.861H-1264.948z"/>
			<path fill="#FFFFFF" stroke="#000000" stroke-width="3" stroke-miterlimit="10" d="M-1186.944,293.897v-55.719h11.144v-11.143
				h55.718v11.143h11.144v55.719h-11.144v11.143h-55.718v-11.143H-1186.944z M-1164.657,293.897h33.431v-55.719h-33.431V293.897z"/>
			<path fill="#FFFFFF" stroke="#000000" stroke-width="3" stroke-miterlimit="10" d="M-1030.935,227.036v11.143h11.144v33.432
				h-22.287v11.143h11.144v11.145h11.144v11.143h-33.431v-11.143h-11.144v-11.145h-11.144v22.287h-22.287v-78.004H-1030.935z
				 M-1075.509,271.61h22.287v-11.145h11.144v-22.287h-33.431V271.61z"/>
		</g>
	</g>
</g>
<g>
	
		<image overflow="visible" opacity="0.75" width="3815" height="1573" xlink:href="1B8E4F2D.png"  transform="matrix(0.24 0 0 0.24 -948.0244 42.3213)">
	</image>
	<g>
		<g>
			<g>
				<path fill="#E6E7E8" stroke="#000000" stroke-width="4" stroke-miterlimit="10" d="M-863.781,93.148
					c6.883-14.994,15.144-28.512,24.781-39.966c96.633-0.501,194.553-0.787,292.656-0.858c-3.354,4.617-6.227,14.265-8.623,27.504
					c-38.309,0.37-76.174,1.11-112.706,2.22c-38.878,81.194-31.104,279.024,23.327,313.565c-32.619-0.072-65.178-0.167-97.633-0.286
					c-70.951-48.214-81.086-224.138-30.407-308.839C-805.367,88.338-836.129,90.559-863.781,93.148z"/>
				<path fill="#E6E7E8" stroke="#000000" stroke-width="4" stroke-miterlimit="10" d="M-439.598,368.252
					c2.395-13.24,4.312-30.073,5.748-49.062c-21.023,0.182-42.229,0.272-63.434,0.272c0-57.067,0-133.774,0-190.843
					c21.206,0,42.41,0.091,63.435,0.272c-1.438-18.99-3.354-35.823-5.749-49.064c19.153,0.185,38.196,0.463,57.018,0.833
					c-4.615-13.35-10.151-23.239-16.61-28.283c65.341,0.095,130.52,0.286,195.207,0.572c11.472,9.602,21.306,22.072,29.501,36.591
					c15.268,1.11,29.871,2.313,43.697,3.607c6.884,14.994,12.391,31.464,16.521,48.818c-24.615-2.542-54.313-4.721-87.643-6.537
					c-5.068-18.172-11.824-34.824-20.271-48.941c-32.981-1.85-68.182-3.33-104.716-4.44c6.48,13.533,11.664,30.306,15.552,49.022
					c-19.57-0.544-39.687-0.999-60.165-1.362c8.305,56.66,8.305,132.005,0,188.665c20.479-0.363,40.595-0.817,60.165-1.362
					c-3.889,18.716-9.072,35.487-15.551,49.02c36.533-1.109,71.733-2.59,104.715-4.439c8.446-14.117,15.203-30.768,20.271-48.938
					c33.329-1.815,63.027-3.995,87.642-6.537c-4.13,17.354-9.636,33.822-16.521,48.815c-13.826,1.295-28.43,2.497-43.697,3.607
					c-8.194,14.52-18.027,26.989-29.501,36.592c-64.688,0.286-129.866,0.478-195.207,0.572c6.46-5.045,11.996-14.934,16.61-28.284
					C-401.4,367.789-420.443,368.066-439.598,368.252z"/>
			</g>
			<g>
				<path fill="#FFFFFF" stroke="#000000" stroke-width="3" stroke-miterlimit="10" d="M-877.547,133.027
					c1.058-3.903,2.189-7.753,3.394-11.545c17.668-1.917,37.415-3.646,58.832-5.186c-1.465,3.832-2.843,7.752-4.131,11.752
					c-7.112,0.493-14.022,1.006-20.713,1.539c-7.481,23.816-11.891,50.174-13.222,76.984c-6.486,0.122-12.691,0.248-18.596,0.378
					c1.252-26.237,5.393-52.08,12.42-75.702C-865.799,131.82-871.8,132.414-877.547,133.027z"/>
				<path fill="#FFFFFF" stroke="#000000" stroke-width="3" stroke-miterlimit="10" d="M-821.425,192.315
					c2.452-27.347,8.101-53.754,16.948-76.773c7.32-0.493,14.82-0.964,22.481-1.415c-8.81,23.084-14.435,49.856-16.876,77.65
					c11.621-0.257,23.747-0.497,36.307-0.718c2.327-28.39,7.691-55.647,16.093-78.817c8.115-0.387,16.372-0.754,24.753-1.1
					c-7.92,23.22-12.977,50.761-15.172,79.499c-4.368,0.065-8.693,0.133-12.974,0.203c-0.378,4.762-0.673,9.555-0.887,14.367
					c-21.443,0.201-41.731,0.43-60.532,0.687c0.23-4.639,0.551-9.262,0.959-13.857C-814.084,192.13-817.785,192.222-821.425,192.315
					z"/>
				<path fill="#FFFFFF" stroke="#000000" stroke-width="3" stroke-miterlimit="10" d="M-683.213,109.728
					c-1.154,3.881-2.24,7.891-3.256,12.013c4.42-0.136,8.869-0.267,13.342-0.392c-0.958,4.129-1.85,8.374-2.677,12.717
					c4.529-0.116,9.087-0.228,13.669-0.335c0.773-4.354,1.608-8.607,2.505-12.744c4.523-0.116,9.07-0.226,13.64-0.332
					c0.832-4.144,1.719-8.168,2.664-12.058c8.994-0.22,18.068-0.419,27.206-0.597c-5.493,27.259-8.669,61.302-9.529,96.409
					c-9.813,0.039-19.537,0.083-29.15,0.13c0.444-14.947,1.4-29.703,2.868-43.83c-4.729,0.074-9.433,0.151-14.107,0.232
					c-0.527,4.694-0.994,9.457-1.399,14.273c-4.708,0.064-9.388,0.131-14.034,0.201c0.434-4.797,0.932-9.543,1.496-14.221
					c-4.615,0.088-9.201,0.18-13.754,0.274c-1.795,13.98-2.964,28.559-3.507,43.317c-9.232,0.062-18.321,0.128-27.248,0.199
					c1.393-34.085,6.536-67.228,15.429-94.345C-700.554,110.314-691.934,110.01-683.213,109.728z"/>
				<path fill="#FFFFFF" stroke="#000000" stroke-width="3" stroke-miterlimit="10" d="M-518.454,106.899
					c-0.146,3.903-0.28,7.951-0.409,12.126c4.793-0.015,9.588-0.025,14.385-0.03c-0.086,8.351-0.159,17.212-0.221,26.445
					c-4.943,0.004-9.886,0.012-14.823,0.025c-0.093,4.615-0.177,9.322-0.252,14.104c4.994-0.011,9.992-0.018,14.991-0.021
					c-0.05,9.568-0.089,19.437-0.115,29.466c-5.076,0.002-10.15,0.006-15.222,0.012c-0.04,5.013-0.071,10.066-0.095,15.143
					c-30.548,0.021-60.955,0.082-90.649,0.185c0.767-35.204,3.6-69.333,8.498-96.605
					C-574.771,107.276-546.664,106.993-518.454,106.899z M-578.463,145.813c14.617-0.137,29.351-0.236,44.138-0.298
					c0.308-9.226,0.675-18.082,1.098-26.429c-14.352,0.075-28.657,0.196-42.858,0.362
					C-577.004,127.781-577.797,136.615-578.463,145.813z M-580.614,189.192c14.993-0.065,30.116-0.114,45.296-0.144
					c0.134-10.02,0.326-19.879,0.575-29.438c-14.952,0.053-29.849,0.137-44.626,0.253
					C-579.909,169.391-580.324,179.213-580.614,189.192z"/>
				<path fill="#FFFFFF" stroke="#000000" stroke-width="3" stroke-miterlimit="10" d="M-462.02,106.962
					c1.446,23.412,2.369,52.028,2.77,82.087c25.303,0.05,50.441,0.15,75.093,0.299c0.193,4.968,0.346,9.976,0.455,15.004
					c-34.644-0.12-70.257-0.184-105.936-0.192c-0.053-35.544-0.249-69.974-0.587-97.293
					C-480.815,106.878-471.407,106.91-462.02,106.962z"/>
				<path fill="#FFFFFF" stroke="#000000" stroke-width="3" stroke-miterlimit="10" d="M-326.097,189.803
					c-1.413-24.527-4.358-48.133-8.84-68.816c-9.048-0.231-18.188-0.442-27.409-0.634c-0.762-4.149-1.576-8.178-2.443-12.071
					c27.211,0.597,53.772,1.383,79.279,2.357c1.271,3.874,2.464,7.872,3.582,11.977c-8.601-0.312-17.33-0.604-26.17-0.875
					c5.078,20.61,8.417,44.042,10.018,68.361c9.205,0.107,18.27,0.223,27.173,0.347c0.353,4.816,0.628,9.667,0.826,14.536
					c-26.778-0.213-55.03-0.384-84.186-0.515c-0.136-5-0.324-9.978-0.563-14.918C-345.146,189.627-335.562,189.711-326.097,189.803z
					"/>
				<path fill="#FFFFFF" stroke="#000000" stroke-width="3" stroke-miterlimit="10" d="M-248.096,112.242
					c1.4,3.862,2.716,7.838,3.947,11.913c4.09,0.186,8.141,0.377,12.152,0.574c1.258,4.063,2.429,8.224,3.515,12.468
					c4.033,0.182,8.022,0.368,11.966,0.559c1.103,4.227,2.118,8.535,3.046,12.91c3.958,0.17,7.867,0.344,11.726,0.522
					c-2.813-13.053-6.422-25.518-10.827-37.06c7.661,0.451,15.16,0.922,22.479,1.414c10.322,26.856,16.293,58.324,17.908,90.514
					c-7.277-0.107-14.804-0.21-22.557-0.309c-0.229-4.677-0.548-9.337-0.955-13.97c-3.875-0.086-7.804-0.17-11.787-0.251
					c-0.403-4.667-0.893-9.305-1.471-13.9c-3.977-0.115-8.006-0.227-12.085-0.335c-0.568-4.625-1.224-9.208-1.964-13.733
					c-4.066-0.138-8.182-0.271-12.341-0.401c2.176,13.653,3.593,27.836,4.251,42.179c-8.387-0.085-16.97-0.165-25.727-0.241
					c-1.446-33.891-6.79-66.862-16.03-93.952C-264.469,111.487-256.211,111.854-248.096,112.242z"/>
				<path fill="#FFFFFF" stroke="#000000" stroke-width="3" stroke-miterlimit="10" d="M-152.057,192.902
					c-0.4-4.477-0.888-8.93-1.463-13.349c-3.395-0.142-6.852-0.282-10.371-0.419c-1.746-13.373-4.289-26.424-7.625-38.863
					c3.545,0.229,7.035,0.461,10.469,0.699c-1.098-4.124-2.282-8.183-3.554-12.167c3.452,0.256,6.853,0.518,10.198,0.785
					c-1.247-3.97-2.58-7.869-3.998-11.688c16.881,1.388,32.51,2.907,46.646,4.557c1.123,3.784,2.179,7.622,3.166,11.506
					c-10.984-1.268-23.01-2.455-35.944-3.561c1.214,3.953,2.344,7.973,3.392,12.049c-3.198-0.256-6.458-0.508-9.776-0.754
					c3.229,12.303,5.688,25.154,7.381,38.292c3.26,0.148,6.455,0.299,9.578,0.452c0.549,4.338,1.014,8.707,1.396,13.095
					c6.219,0.219,12.152,0.447,17.777,0.682c-0.706-8.589-1.718-17.106-3.037-25.49c-2.864-0.208-5.8-0.412-8.807-0.612
					c-0.689-4.231-1.46-8.425-2.31-12.575c9.111,0.709,17.62,1.456,25.463,2.239c2.868,16.187,4.652,32.919,5.356,49.786
					c-12.383-0.361-26.848-0.693-43.061-0.996c-0.223-4.468-0.529-8.924-0.923-13.358
					C-145.353,193.107-148.672,193.003-152.057,192.902z"/>
				<path fill="#FFFFFF" stroke="#000000" stroke-width="3" stroke-miterlimit="10" d="M-933.362,306.727
					c-0.185-3.741-0.357-7.489-0.517-11.243c-1.588-0.359-3.091-0.723-4.506-1.091c-0.059-11.157-0.104-22.321-0.135-33.489
					c1.083,0.221,2.266,0.438,3.547,0.654c-0.084-3.783-0.155-7.569-0.213-11.357c1.221,0.154,2.542,0.305,3.96,0.455
					c-0.105-3.85-0.188-7.705-0.247-11.562c5.532,0.343,12.65,0.668,21.184,0.975c0.145,4.104,0.346,8.201,0.603,12.287
					c2.156,0.133,4.401,0.265,6.73,0.395c0.285,4.141,0.633,8.269,1.043,12.377c-4.725-0.362-9.119-0.737-13.163-1.122
					c-0.321-4.007-0.594-8.026-0.818-12.057c-3.961-0.275-7.563-0.559-10.785-0.85c0.148,3.912,0.329,7.818,0.543,11.716
					c-1.662-0.203-3.23-0.41-4.704-0.619c0.454,11.521,1.114,22.988,1.979,34.351c1.757,0.35,3.596,0.694,5.517,1.034
					c0.408,3.821,0.848,7.626,1.319,11.41c4.086,0.734,8.474,1.448,13.147,2.143c-0.711-3.826-1.374-7.684-1.988-11.568
					c4.472,0.644,9.249,1.268,14.315,1.873c0.782,3.943,1.626,7.852,2.532,11.718c-2.613-0.327-5.16-0.659-7.638-0.996
					c0.814,3.846,1.685,7.655,2.61,11.423c-10.325-1.403-19.634-2.891-27.808-4.463c-0.381-3.733-0.738-7.482-1.072-11.245
					C-929.816,307.496-931.629,307.113-933.362,306.727z"/>
				<path fill="#FFFFFF" stroke="#000000" stroke-width="3" stroke-miterlimit="10" d="M-886.77,266.182
					c-0.479-4.205-0.885-8.434-1.219-12.679c2.656,0.121,5.393,0.241,8.206,0.358c-0.353-4.294-0.629-8.606-0.828-12.928
					c8.396,0.203,17.495,0.395,27.224,0.577c0.222,4.468,0.529,8.923,0.922,13.357c3.25,0.105,6.568,0.209,9.954,0.311
					c0.4,4.478,0.888,8.931,1.464,13.351c3.393,0.143,6.851,0.282,10.37,0.419c2.913,22.287,8.031,43.683,15.354,62.837
					c-7.139-0.514-14.093-1.048-20.845-1.603c-2.836-7.638-5.33-15.596-7.482-23.798c-9.955-0.74-19.381-1.523-28.218-2.348
					c1.934,8.052,4.173,15.908,6.719,23.505c-6.116-0.618-12.009-1.257-17.664-1.917c-5.614-18.919-9.537-39.175-11.769-59.961
					C-892.057,265.839-889.452,266.012-886.77,266.182z M-874.536,291.818c8.702,0.734,18.028,1.431,27.914,2.091
					c-1.812-8.427-3.28-17.058-4.407-25.816c-3.262-0.148-6.455-0.299-9.579-0.453c-0.549-4.338-1.015-8.707-1.396-13.096
					c-3.11-0.11-6.147-0.222-9.111-0.335c0.37,4.343,0.818,8.666,1.349,12.962c-2.982-0.159-5.892-0.321-8.727-0.486
					C-877.481,275.187-876.162,283.585-874.536,291.818z"/>
				<path fill="#FFFFFF" stroke="#000000" stroke-width="3" stroke-miterlimit="10" d="M-799.826,242.334
					c1.38,28.061,5.943,55.543,13.691,79.782c19.207,1.082,39.523,2.037,60.694,2.867c1.161,4.095,2.401,8.085,3.722,11.955
					c-29.334-1.21-57.136-2.677-82.758-4.4c-10.321-26.855-16.291-58.323-17.907-90.513
					C-815.106,242.133-807.58,242.236-799.826,242.334z"/>
				<path fill="#FFFFFF" stroke="#000000" stroke-width="3" stroke-miterlimit="10" d="M-699.643,325.919
					c-1.069-4.114-2.064-8.339-2.988-12.659c-4.409-0.135-8.787-0.275-13.13-0.42c-2.893-12.919-5.097-26.678-6.612-40.877
					c4.434,0.087,8.907,0.171,13.418,0.252c-0.484-4.757-0.894-9.563-1.23-14.404c4.529,0.058,9.098,0.113,13.699,0.167
					c-0.32-4.863-0.57-9.763-0.751-14.682c18.466,0.124,37.501,0.229,56.938,0.315c0.136,5,0.323,9.978,0.563,14.917
					c4.842,0.038,9.709,0.074,14.598,0.107c0.217,4.956,0.482,9.873,0.794,14.735c-9.722-0.095-19.356-0.201-28.884-0.318
					c-0.376-4.833-0.694-9.72-0.956-14.645c-9.58-0.083-19.05-0.175-28.392-0.274c0.303,4.886,0.67,9.735,1.104,14.533
					c-4.648-0.069-9.264-0.143-13.845-0.218c1.378,14.332,3.38,28.205,6.011,41.201c4.471,0.126,8.973,0.247,13.503,0.364
					c0.826,4.344,1.72,8.589,2.677,12.719c8.947,0.252,18,0.483,27.137,0.694c-0.83-4.144-1.604-8.406-2.321-12.771
					c9.263,0.195,18.618,0.373,28.051,0.531c0.595,4.381,1.238,8.658,1.929,12.813c-4.648-0.086-9.277-0.176-13.888-0.271
					c0.762,4.148,1.575,8.177,2.442,12.068c-18.141-0.397-35.992-0.88-53.436-1.445c-1.154-3.881-2.24-7.89-3.256-12.011
					C-690.889,326.205-695.281,326.064-699.643,325.919z"/>
				<path fill="#FFFFFF" stroke="#000000" stroke-width="3" stroke-miterlimit="10" d="M-604.339,328.242
					c-3.693-24.954-5.868-54.339-6.525-84.514c9.898,0.034,19.875,0.064,29.911,0.089c0.49,30.311,2.113,59.817,4.867,84.817
					c14.202,0.166,28.508,0.287,42.858,0.362c-1.272-25.042-2.021-54.662-2.247-85.097c10.162,0.012,20.352,0.019,30.545,0.021
					c0.045,30.466,0.195,60.114,0.451,85.167c-4.797-0.006-9.592-0.016-14.384-0.03c0.127,4.174,0.264,8.221,0.408,12.123
					c-23.509-0.078-46.944-0.288-70.073-0.628c-0.612-3.897-1.188-7.937-1.726-12.099
					C-594.962,328.389-599.659,328.317-604.339,328.242z"/>
				<path fill="#FFFFFF" stroke="#000000" stroke-width="3" stroke-miterlimit="10" d="M-459.093,243.9
					c-0.228,30.435-0.976,60.055-2.247,85.097c23.92-0.126,47.709-0.377,71.112-0.755c-0.615,4.159-1.272,8.194-1.973,12.09
					c-32.195,0.551-65.087,0.844-98.024,0.88c0.338-27.318,0.534-61.748,0.587-97.292
					C-479.443,243.918-469.255,243.912-459.093,243.9z"/>
				<path fill="#FFFFFF" stroke="#000000" stroke-width="3" stroke-miterlimit="10" d="M-355.707,273.22
					c0.344-4.848,0.637-9.751,0.877-14.691c4.842-0.038,9.658-0.078,14.448-0.12c0.263-4.923,0.467-9.883,0.615-14.865
					c14.419-0.072,28.588-0.155,42.438-0.247c-0.181,4.919-0.432,9.818-0.751,14.682c4.602-0.054,9.169-0.109,13.699-0.167
					c-0.336,4.841-0.747,9.647-1.23,14.404c4.511-0.081,8.984-0.165,13.418-0.252c-2.525,23.666-6.965,46.108-13.316,65.479
					c-8.503,0.324-17.122,0.628-25.844,0.911c2.31-7.762,4.341-16.037,6.094-24.702c-13.416,0.378-27.1,0.713-40.995,1.007
					c-1.434,8.729-3.096,17.048-4.985,24.826c-8.994,0.221-18.067,0.42-27.206,0.598c3.924-19.47,6.665-42.402,8.225-66.71
					C-365.361,273.323-360.521,273.273-355.707,273.22z M-344.274,301.274c14.055-0.262,27.889-0.56,41.436-0.896
					c1.475-9.023,2.671-18.375,3.59-27.93c-4.581,0.075-9.197,0.148-13.845,0.218c0.434-4.798,0.801-9.647,1.104-14.533
					c-4.67,0.05-9.373,0.098-14.106,0.144c-0.282,4.905-0.626,9.774-1.031,14.591c-4.708,0.064-9.445,0.126-14.21,0.185
					C-342.089,282.718-343.068,292.168-344.274,301.274z"/>
				<path fill="#FFFFFF" stroke="#000000" stroke-width="3" stroke-miterlimit="10" d="M-244.703,257.236
					c0.377-4.762,0.674-9.555,0.887-14.366c25.732-0.241,49.8-0.522,71.633-0.845c-0.231,4.598-0.551,9.182-0.959,13.739
					c-7.281,0.187-14.805,0.366-22.553,0.538c-2.441,27.794-8.066,54.565-16.875,77.649c-7.661,0.451-15.486,0.88-23.458,1.289
					c8.581-23.144,14.061-50.247,16.438-78.448C-227.766,256.949-236.144,257.097-244.703,257.236z"/>
				<path fill="#FFFFFF" stroke="#000000" stroke-width="3" stroke-miterlimit="10" d="M-175.115,320.034
					c6.441-19.997,10.677-41.967,12.707-64.557c3.516-0.099,6.967-0.198,10.352-0.3c0.4-4.476,0.713-8.976,0.941-13.489
					c16.9-0.292,32.117-0.612,45.319-0.961c-0.188,4.271-0.45,8.531-0.783,12.776c2.657-0.122,5.235-0.245,7.729-0.371
					c-1.555,20.968-4.802,41.565-9.739,60.988c-2.745,0.316-5.557,0.628-8.431,0.935c-1.06,3.902-2.189,7.753-3.394,11.544
					c-14.724,1.598-30.89,3.064-48.265,4.399c1.445-3.824,2.806-7.733,4.076-11.718
					C-168.054,319.536-171.56,319.788-175.115,320.034z M-154.402,318.495c10.035-0.8,19.578-1.645,28.572-2.534
					c5.6-19.602,9.281-40.626,11.045-62.1c-8.438,0.354-17.568,0.688-27.317,1.006
					C-144.066,277.035-148.167,298.647-154.402,318.495z"/>
				<path fill="#FFFFFF" stroke="#000000" stroke-width="3" stroke-miterlimit="10" d="M-59.244,238.832
					c-0.032,3.792-0.078,7.581-0.137,11.369c1.222-0.153,2.342-0.309,3.36-0.467c-0.021,11.171-0.058,22.339-0.106,33.501
					c-2.563,0.655-5.497,1.294-8.781,1.916c-0.242,3.809-0.51,7.607-0.797,11.395c1.756-0.35,3.43-0.703,5.018-1.062
					c-0.159,3.754-0.332,7.502-0.517,11.243c1.731-0.388,3.388-0.78,4.958-1.177c-0.023,3.717-0.047,7.434-0.072,11.148
					c-5.256,1.242-11.185,2.437-17.735,3.583c0.536-3.742,1.041-7.508,1.513-11.292c-2.043,0.367-4.163,0.729-6.354,1.087
					c0.598-3.807,1.154-7.638,1.67-11.49c-2.081,0.33-4.239,0.656-6.476,0.978c-1.228,7.769-2.651,15.429-4.269,22.949
					c-4.905,0.723-10.071,1.425-15.483,2.105c7.212-26.433,11.383-55.195,12.513-84.324
					C-77.094,239.848-66.338,239.36-59.244,238.832z M-82.005,287.838c4.299-0.573,8.273-1.161,11.907-1.768
					c0.342-3.852,0.653-7.718,0.931-11.595c1.73-0.257,3.371-0.518,4.919-0.781c0.394-7.653,0.696-15.338,0.907-23.04
					c-4.256,0.449-9.39,0.879-15.331,1.292C-79.346,264.036-80.455,276.038-82.005,287.838z"/>
			</g>
		</g>
	</g>
</g>
<g>
	<g>
		
			<image overflow="visible" opacity="0.75" width="2980" height="1561" xlink:href="1B8E4F2E.png"  transform="matrix(0.24 0 0 0.24 114.8711 43.7808)">
		</image>
		<g>
			<g>
				<g>
					<g>
						<path fill="none" stroke="#D7DF23" stroke-width="5" stroke-linecap="round" stroke-linejoin="round" d="M320.266,103.384
							c4.601,7.968,78.336-58.188,83.947-48.467c2.458,4.256-52.932,51.071-52.789,51.319c0.949,1.642,62.327-37.811,63.118-36.441
							c1.094,1.894-20.031,27.389-18.669,29.749c1.919,3.324,20.17-13.321,20.896-12.064c1.241,2.15-14.427,12.939-13.637,14.308
							c1.16,2.009,4.747-4.465,5.493-3.172c0.495,0.857,7.063,0.971,7.511,1.748c0.296,0.513,3.368-2.123,3.445-1.989
							c0.797,1.38-8.978,6.096-8.965,6.119c0.025,0.044,10.409-6.123,10.458-6.038"/>
						<path fill="none" stroke="#D7DF23" stroke-width="5" stroke-linecap="round" stroke-linejoin="round" d="M131.661,51.351
							c0.167,0.29,2.591-1.96,2.792-1.612c1.266,2.192-9.911,18.619-9.658,19.056c1.067,1.85,24.61-17.268,25.936-14.974
							c0.972,1.684-29.074,27.982-26.762,31.987c0.058,0.101,50.955-29.656,51.058-29.479c2.144,3.712-21.14,38.675-17.781,44.493
							c3.979,6.892,82.006-64.177,89.294-51.554c4.446,7.701-62.133,41.303-57.242,49.773c5.4,9.354,71.648-47.938,74.494-43.01
							c6.567,11.374-84.439,48-84.021,48.726c0.733,1.271,90.084-52.773,90.414-52.201c4.458,7.72-54.081,43.11-51.276,47.97
							c0.55,0.952,82.219-56.175,85.988-49.646c6.477,11.217-93.47,60.214-88.088,69.536
							c7.381,12.783,118.966-71.355,120.123-69.353c8.066,13.972-120.556,79.11-115.287,88.235
							c7.981,13.825,148.413-104.081,156.378-90.285c3.243,5.617-154.539,83.375-151.712,88.272
							c2.361,4.09,134.021-93.256,140.897-81.347c7.634,13.222-155.22,103.074-148.135,115.346
							c0.783,1.357,100.453-71.965,106.502-61.489c4.521,7.83-109.049,66.292-107.537,68.91c5.546,9.606,95.172-56.653,95.91-55.374
							c2.945,5.102-105.741,65.498-98.848,77.438c5.209,9.022,108.777-71.177,112.403-64.896
							c5.895,10.208-112.931,76.991-109.527,82.885c4.907,8.5,99.896-57.973,100.024-57.749
							c6.445,11.164-100.456,72.352-98.004,76.599c0.183,0.315,99.081-72.297,105.616-60.978
							c4.735,8.201-106.693,76.309-105.447,78.467c6.107,10.579,98.132-70.744,104.231-60.179
							c6.177,10.7-117.775,71.136-109.239,85.921c0.986,1.709,90.042-65.571,95.925-55.382
							c6.014,10.416-93.167,64.333-89.591,70.528c1.865,3.229,98.046-70.945,104.255-60.191
							c5.884,10.191-115.679,77.491-110.575,86.331c0.029,0.051,99.912-60.932,101.318-58.496
							c7.658,13.267-101.221,56.823-97.234,63.727c2.014,3.487,91.835-60.951,95.269-55.004
							c7.604,13.171-100.089,49.262-94.337,59.224c6.194,10.729,104.225-63.821,105.805-61.086
							c6.279,10.876-114.437,69.869-110.355,76.938c2.433,4.212,105.554-69.028,109.055-62.963
							c6.205,10.747-100.855,80.555-98.505,84.626c7.118,12.329,85.022-62.625,90.884-52.472
							c4.412,7.642-92.909,60.363-86.659,71.188c7.867,13.626,88.855-61.956,93.469-53.965c2.173,3.763-99.425,51.926-94.046,61.243
							c5.252,9.096,85.026-54.119,87.204-50.348c0.437,0.756-53.479,46.814-52.275,48.9c3.528,6.111,49.123-36.337,52.577-30.354
							c0.101,0.175-28.645,27.475-27.651,29.195c1.224,2.12,28.944-19.819,30.29-17.487c1.688,2.925-23.486,18.539-23.225,18.992
							c1.856,3.215,28.42-18.456,29.307-16.92c0.559,0.966-10.136,15.424-9.106,17.206c0.12,0.208,2.475-1.488,2.501-1.443"/>
						<path fill="none" stroke="#000000" stroke-width="5" stroke-linecap="round" stroke-linejoin="round" d="M137.165,51.293
							c0.123,0.212,4.509-2.998,4.68-2.702c0.329,0.57,9.946,1.384,10.452,2.259c0.186,0.321,6.445-4.871,6.943-4.009
							c1.715,2.97,28.078,5.435,30.08,8.902c0.232,0.403,6.648-4.155,6.785-3.917c1.533,2.655,34.971,4.689,35.867,6.242
							c0.009,0.015,6.577-4.276,6.784-3.917c0.058,0.099,8.706,2.884,9.089,3.546c0.053,0.092,15.428-9.848,15.835-9.143
							c0.223,0.386-12.276,6.876-11.329,8.515c0.1,0.174,2.205-2.319,2.658-1.535c0.648,1.125,12.472-3.416,13.302-1.978
							c0.053,0.092,4.597-3.966,5.165-2.982c1.353,2.343,17.307,5.534,17.534,5.929c0.424,0.735,8.798-5.999,9.196-5.31
							c0.862,1.493,15.703,6.839,16.074,7.483c0.155,0.268,9.976-5.999,10.079-5.819c2.401,4.159,51.598,3.42,51.699,3.597
							c0.125,0.216,9.224-6.656,9.8-5.658c0.109,0.19,27.293,5.263,28.265,6.946c0.287,0.497,5.015-3.466,5.263-3.038
							c0.229,0.398-6.709,4.56-6.635,4.689c0.122,0.211,3.918-2.318,3.942-2.276c0.515,0.893-3.097,7.91-3.051,7.99
							c0.272,0.473,3.476-2.727,3.787-2.187c0.551,0.954-5.294,12.534-4.981,13.075c0.13,0.225,9.772-5.841,9.858-5.692
							c0.31,0.537-7.854,22.501-7.405,23.276c0.006,0.01,3.682-2.363,3.784-2.185c0.54,0.936-6.245,6.956-5.881,7.585
							c0.328,0.568,3.718-2.645,3.934-2.271"/>
						<path fill="none" stroke="#000000" stroke-width="5" stroke-linecap="round" stroke-linejoin="round" d="M322.718,105.105
							c0.207,0.358,5.07-3.544,5.337-3.082c0.348,0.602-5.215,3.134-4.863,3.742c0.358,0.621,2.482-1.821,2.65-1.53
							c1.919,3.324,40.779-0.226,41.003,0.162c0.326,0.564,6.284-4.9,6.835-3.946c0.63,1.091,24.263,2.786,25.699,5.273
							c0.383,0.664,3.317-2.959,3.77-2.176c0.004,0.007,11.457,0.494,12.008,1.448c0,0.001,2.336-1.782,2.523-1.457"/>
						<path fill="none" stroke="#000000" stroke-width="5" stroke-linecap="round" stroke-linejoin="round" d="M324.695,97.749
							c0.105,0.184,1.47-1.153,1.602-0.925c0.259,0.449-11.146,29.302-8.836,33.304c0.306,0.529,3.693-2.7,3.939-2.274
							c1.143,1.979-11.063,26.291-10.413,27.415c0.24,0.416,14.638-8.945,14.852-8.575c0.118,0.204-8.567,17.765-8.37,18.105
							c0.096,0.166,3.879-2.377,3.938-2.274c2.272,3.937-5.622,29.42-3.933,32.345c0.313,0.541,3.926-2.299,3.939-2.274
							c0.037,0.063-7.773,4.094-7.129,5.211c0.046,0.08,13.499-8.115,13.639-7.874c0.678,1.174-10.936,34.526-10.443,35.378
							c0.199,0.344,3.688-2.712,3.939-2.274c0.236,0.408-7.857,3.269-7.287,4.258c0.256,0.441,10.038-6.109,10.174-5.874
							c0.178,0.308-9.99,6.865-9.641,7.469c0.15,0.262,1-1.286,1.308-0.755c2.293,3.973,1.425,30.03,2.951,32.675
							c0.067,0.116,10.066-6.013,10.153-5.861c0.799,1.383-15.074,29.178-12.447,33.729c0.33,0.57,9.147-5.455,9.223-5.325
							c0.688,1.189-6.89,6.722-6.414,7.545c0.173,0.3,9.068-5.299,9.096-5.251c1.076,1.862-14.907,20.116-14.133,21.457
							c0.242,0.42,11.207-6.999,11.436-6.603c0.145,0.251-11.533,36.734-10.597,38.357c0.335,0.58,8.067-5.157,8.284-4.783
							c0.766,1.327-6.469,22.2-6.018,22.982c0.007,0.012,3.927-2.297,3.939-2.274c0.775,1.343-4.273,14.701-3.245,16.482
							c0.288,0.499,10.686-6.705,10.917-6.303c0.762,1.319-19.36,28.722-19.049,29.262c0.074,0.129,9.084-5.858,9.35-5.397
							c0.047,0.081-3.084,2.381-2.928,2.65c0.121,0.21,12.491-7.274,12.519-7.228"/>
						<path fill="none" stroke="#000000" stroke-width="5" stroke-linecap="round" stroke-linejoin="round" d="M129.69,49.382
							c0.167,0.289,2.592-1.96,2.792-1.612c1.266,2.192-9.91,18.618-9.657,19.056c0.161,0.278,3.775-2.641,3.976-2.295
							c0.463,0.803-5.905,17.397-4.803,19.308c0.005,0.007,0.466-0.286,0.474-0.273c1.444,2.503,23.672,15.331,25.937,19.253
							c0.322,0.559,11.322-7.902,11.913-6.878c0.975,1.688,13.253,6.597,14.325,8.454c0.438,0.759,6.597-4.341,6.827-3.942
							c0.829,1.436-10.577,6.201-10.524,6.292c0.059,0.103,13.017-7.577,13.043-7.531c1.671,2.893,25.061,1.469,26.111,3.29
							c0.045,0.078,8.324-5.512,8.63-4.982c1.229,2.13-4.946,19.174-3.925,20.945c0.265,0.458,13.975-8.165,14.017-8.092
							c1.583,2.742-10.213,25.182-9.179,26.973c0.213,0.369,12.516-7.718,12.729-7.349c0.267,0.462-12.438,7.324-12.204,7.727
							c0.063,0.108,3.759-2.591,3.94-2.275c1.407,2.437-8.339,31.619-7.033,33.88c0.032,0.055,12.943-8.039,13.188-7.614
							c0.732,1.269-14.468,14.611-14.224,15.035c0.226,0.389,2.566-1.551,2.597-1.499c0.567,0.983-6.858,21.26-5.53,23.562
							c0.211,0.366,18.941-11.276,19.089-11.021c1.426,2.47-17.035,27.583-16.212,29.009c0.199,0.344,6.705-3.883,6.711-3.874
							c1.201,2.082-5.145,21.93-4.688,22.722c0.008,0.013,12.037-7.561,12.302-7.103c0.988,1.711-12.392,24.141-12.132,24.591
							c0.248,0.428,10.67-6.732,10.918-6.303c1.59,2.754-18.121,28.238-15.924,32.044c0.04,0.069,2.373-1.92,2.611-1.508
							c0.9,1.559,3.19,15.725,3.726,16.651c0.076,0.132,10.688-6.752,10.94-6.316c1.542,2.671-18.595,30.139-17.258,32.455
							c0.002,0.002,7.946-4.72,8.004-4.621c0.698,1.21-4.284,9.222-3.921,9.852c0.082,0.141,1.815-1.369,1.955-1.129
							c0.371,0.644-1.302,4.86-1.021,5.348c0.25,0.435,12.424-7.321,12.488-7.211c1.339,2.318-17.909,21.557-17.039,23.063
							c0.098,0.171,15.6-9.334,15.741-9.089c1.64,2.84-9.805,31.981-9.184,33.057c0.288,0.5,3.704-2.688,3.942-2.275
							c0.754,1.306,3.211,16.833,4.279,18.684c0.318,0.552-0.033-0.412,0.154-0.089c0.264,0.458-8.264,10.205-7.609,11.339
							c0.406,0.703,5.608-3.628,5.777-3.336c0.178,0.31,28.677,1.027,29.168,1.879c0.431,0.746,3.152-2.793,3.573-2.063
							c0.054,0.093,20.836-0.018,21.364,0.897c0.253,0.438,3.926-2.91,4.205-2.428c0.273,0.474,2.822,3.857,2.864,3.931
							c0.544,0.941,12.636-7.895,12.896-7.445c0.563,0.978,17.079,5.915,18.121,7.719c0.119,0.208,2.476-1.49,2.502-1.444"/>
					</g>
				</g>
				<g>
					<g>
						<path fill="none" stroke="#D7DF23" stroke-width="5" stroke-linecap="round" stroke-linejoin="round" d="M767.943,340.918
							c3.71,6.427,38.976-31.488,42.867-24.749c1.931,3.344-16.685,30.385-15.704,32.083c0.398,0.69,14.603-9.651,15.131-8.736
							c0.664,1.15-7.364,5.756-7.076,6.254c0.019,0.033,7.299-4.633,7.48-4.318"/>
						<path fill="none" stroke="#D7DF23" stroke-width="5" stroke-linecap="round" stroke-linejoin="round" d="M708.625,298.483
							c0.015,0.025,2.471-1.493,2.5-1.443c0.078,0.136-1.118,14.922-0.521,15.956c0.064,0.112,33.082-21.54,34.139-19.71
							c4.238,7.342-45.426,47.542-42.229,53.082c1.662,2.878,82.123-55.921,85.807-49.54c5.978,10.354-92.303,38.737-85.4,50.692
							c2.708,4.69,78.137-60.485,84.794-48.956"/>
						<path fill="none" stroke="#D7DF23" stroke-width="5" stroke-linecap="round" stroke-linejoin="round" d="M572.877,146.615
							c0.836,1.448,42.896-27.459,44.063-25.439c1.177,2.038-30.726,21.862-28.919,24.991c0.868,1.505,29.614-22.488,31.948-18.445
							c1.412,2.446-12.791,20.468-11.141,23.325c0.085,0.148,2.451-1.532,2.501-1.444"/>
						<path fill="none" stroke="#D7DF23" stroke-width="5" stroke-linecap="round" stroke-linejoin="round" d="M612.62,103.106
							c2.551,4.418,79.452-53.467,82.741-47.771c5.408,9.368-87.724,38.982-82.269,48.431c4.421,7.658,77.984-49.805,80.054-46.219
							c2.735,4.737-37.332,44.652-37.013,45.206c4.012,6.949,69.549-55.827,76.335-44.072c1.5,2.596-46.646,39.147-43.228,45.068
							c3.684,6.381,58.26-43.669,62.604-36.145c0.021,0.037-47.182,40.034-44.307,45.014c0.012,0.02,45.004-34.408,48.652-28.089
							c0.691,1.197-55.155,39.481-50.301,47.891c0.654,1.132,40.768-29.318,43.271-24.982c3.024,5.239-36.883,21.502-36.882,21.504
							c3.586,6.21,51.558-33.262,53.071-30.641c0.942,1.632-61.947,37.118-59.047,42.141c1.284,2.225,64.832-44.244,67.782-39.134
							c2.692,4.664-71.508,45.741-69.395,49.4c2.434,4.216,84.918-57.593,88.627-51.169c4.613,7.991-62.342,48.144-60.417,51.478
							c1.292,2.238,68.278-41.103,69.007-39.841c2.848,4.932-35.225,43.193-34.338,44.729c1.044,1.808,40.666-26.304,41.89-24.185
							c1.925,3.334-35.694,16.938-33.087,21.453c2.086,3.614,32.974-22.017,34.264-19.782c0.259,0.448-7.563,17.066-7.224,17.653
							c0.163,0.283,2.437-1.553,2.5-1.443"/>
						<path fill="none" stroke="#D7DF23" stroke-width="5" stroke-linecap="round" stroke-linejoin="round" d="M472.633,148.367
							c0.105,0.184,1.469-1.154,1.602-0.925c0.234,0.406-6.741,27.258-4.647,30.884c17.069,29.564,197.649-145.765,211.355-122.026
							C691.377,74.374,453,195.625,458.925,205.886c8.896,15.409,148.891-104.272,156.819-90.54
							c1.071,1.856-152.764,97.341-150.975,100.438c2.36,4.089,89.646-55.176,91.127-52.612
							c8.438,14.614-95.538,70.754-89.269,81.613c7.709,13.352,87.913-51.552,88.258-50.956
							c0.448,0.777-100.52,40.987-92.663,54.594c1.144,1.981,103.52-67.688,106.949-61.747
							c2.442,4.231-102.02,84.157-100.247,87.228c4.905,8.497,82.432-62.005,88.673-51.195
							c3.078,5.332-102.988,42.276-95.526,55.202c6.293,10.899,100.129-65.557,103.483-59.747
							c1.748,3.029-106.381,55.4-102.951,61.342c3.735,6.469,87.042-67.749,94.618-54.627c6.693,11.593-68.378,63.566-63.922,71.285
							c1.21,2.095,75.464-47.175,77.025-44.471c1.833,3.175-63.17,49.088-57.14,59.532c4.069,7.049,52.986-32.738,53.916-31.129
							c4.23,7.329-54.037,28.272-51.105,33.348c2.137,3.701,53.45-31.638,53.787-31.054c3.158,5.47-61.095,43.317-58.82,47.258
							c3.279,5.68,57.779-40.534,60.886-35.152c0.229,0.397-36.49,49.877-35.005,52.448c6.135,10.626,72.58-51.057,76.543-44.192
							c1.959,3.394-43.233,41.802-42.078,43.803c0.082,0.143,35.248-20.731,35.413-20.446c2.711,4.695-46.929,33.403-43.335,39.628
							c3.556,6.157,52.747-37.061,55.607-32.105c1.838,3.183-64.482,53.758-63.73,55.06c1.262,2.188,67.938-49.682,72.466-41.838
							c0.952,1.648-69.208,40.145-66.04,45.631c2.46,4.261,88.068-52.148,88.633-51.172c4.073,7.056-79.214,48.489-77.755,51.018
							c2.45,4.243,82.214-62.995,88.938-51.349c5.559,9.627-85.429,42.813-79.339,53.36c4.843,8.387,88.273-60.665,92.474-53.39
							c0.808,1.398-47.063,45.724-45.541,48.357c3.498,6.059,63.441-45.729,67.382-38.903c1.343,2.325-67.187,38.147-64.249,43.235
							c2.703,4.682,152.362-106.968,160.591-92.717c10.002,17.325-122.07,87.1-120.052,90.597
							c9.797,16.968,133.129-77.52,133.414-77.026c8.732,15.125-150.746,69.088-142.319,83.683
							c5.906,10.231,134.746-82.526,136.794-78.979c4.073,7.055-126.301,61.267-117.584,76.365
							c0.158,0.274,67.185-42.914,68.971-39.82c2.355,4.08-5.717,30.123-3.249,34.397c0.319,0.554,10.793-6.41,10.87-6.276
							c0.33,0.573-1.502,8.285-1.434,8.405c0.087,0.149,1.3-1.079,1.442-0.833"/>
						<path fill="none" stroke="#D7DF23" stroke-width="5" stroke-linecap="round" stroke-linejoin="round" d="M512.379,104.857
							c0.137,0.237,2.031-1.557,2.197-1.269c0.867,1.501-7.192,24.877-7.143,24.964c0.625,1.081,42.538-25.762,43.059-24.86
							c1.517,2.626-33.361,33.871-31.473,37.142c11.572,20.044,146.411-94.639,150.788-87.058
							c11.411,19.765-161.94,82.661-154.678,95.241C528.255,171.75,663.501,43.85,671.947,58.479"/>
						<path fill="none" stroke="#D7DF23" stroke-width="5" stroke-linecap="round" stroke-linejoin="round" d="M569.474,51.351
							c0.167,0.289,2.592-1.96,2.793-1.612c1.266,2.192-9.911,18.619-9.659,19.056c1.068,1.85,24.613-17.27,25.938-14.975
							c0.973,1.684-29.076,27.983-26.764,31.989c0.059,0.101,50.96-29.658,51.063-29.481c2.863,4.959-51.858,35.289-47.37,43.062
							c3.861,6.688,79.737-62.372,86.812-50.121"/>
						<path fill="none" stroke="#000000" stroke-width="5" stroke-linecap="round" stroke-linejoin="round" d="M560.06,59.906
							c0.472,0.818,15.623-9.969,16.034-9.257c0.826,1.432,8.117,7.342,8.384,7.805c0.242,0.42,15.534-9.631,15.821-9.134
							c0.857,1.485,10.726,8.166,11.424,9.374c0.502,0.871,17.064-10.208,17.219-9.941c2.245,3.889,28.64,7.871,29.359,9.119
							c0.406,0.703,2.579-1.808,2.717-1.568c1.278,2.214,18.994-7.129,20.054-5.295c0.567,0.983,1.519-2.162,2.075-1.198
							c0.406,0.704,2.683,4.374,2.878,4.712c0.205,0.354,2.42-2.186,2.762-1.594c2.164,3.749,45.106-0.433,45.271-0.149
							c0.37,0.64,5.207-3.121,5.258-3.035c1.756,3.043,6.512,21.083,7.359,22.551c0.199,0.346,4.433-2.606,4.453-2.571
							c1.347,2.333,3.812,16.996,4.941,18.953c0.122,0.211,1.891-1.532,2.081-1.202c0.097,0.167,22.94,15.268,23.056,15.467
							c0.166,0.287,10.629-6.931,10.973-6.335c0.756,1.309-7.064,9.253-6.326,10.531c0.121,0.21,5.518-3.507,5.656-3.266
							c0.878,1.52,11.69,12.136,12.424,13.407c0.205,0.354,3.928-2.295,3.939-2.274c0.014,0.023-0.666,5.468-0.482,5.786
							c0.087,0.151,0.134-0.17,0.175-0.101c1.067,1.849-11.833,10.137-11.579,10.578c0.127,0.22,17.617-10.443,17.734-10.239
							c1.566,2.712-10.111,21.471-9.754,22.09c0.004,0.005,3.725-2.637,3.936-2.272c0.264,0.457-4.915,5.994-4.326,7.015
							c0.19,0.329,10.784-6.55,10.925-6.307"/>
						<path fill="none" stroke="#000000" stroke-width="5" stroke-linecap="round" stroke-linejoin="round" d="M615.772,104.424
							c0.56,0.969,6.326-4.827,6.835-3.946c0.116,0.202,3.984,2.596,4.152,2.886c0.416,0.721,10.976-7.599,11.522-6.652
							c0.851,1.473,15.365,2.168,16.446,4.042c0.006,0.009,0.858-1.807,1.426-0.823c1.333,2.308,22.302,3.356,23.601,5.605
							c0.19,0.33,16.628-10.482,17.011-9.821c0.867,1.502,2.143,13.636,3.031,15.174c0.299,0.518,7.479-4.412,7.52-4.341
							c1.602,2.775-1.573,22.053-0.662,23.632c0.112,0.194,3.807-2.512,3.943-2.276c1.4,2.427,0.715,19.305,1.052,19.889
							c0.127,0.22,7.408-4.649,7.569-4.37c0.26,0.449,14.696,7.595,15.874,9.634c0.058,0.1,6.286-4.888,6.831-3.944
							c1.045,1.81,18.753,0.679,19.995,2.831c0.265,0.459,10.138-7.109,10.682-6.167c0.198,0.343,11.633,4.421,11.976,5.015
							c0.162,0.281,3.504-3.007,3.93-2.269c0.275,0.478,6.611,3.89,6.962,4.498c0.455,0.788,6.253-4.955,6.835-3.946
							c0.671,1.161-5.027,8.141-4.811,8.514c0.037,0.066,8.656-5.268,8.773-5.065"/>
						<path fill="none" stroke="#000000" stroke-width="5" stroke-linecap="round" stroke-linejoin="round" d="M601.651,106.362
							c0.019,0.032,12.949-7.485,12.953-7.479c1.758,3.044-6.782,32.892-5.232,35.575c0.338,0.586,3.81-2.482,3.933-2.271
							c0.574,0.996-3.561,12.986-3.485,13.116c0.056,0.096-0.214-0.393,0.01-0.006c0.097,0.167-0.765,2.468-0.742,2.507
							c0.325,0.563,11.037-6.417,11.057-6.383"/>
						<path fill="none" stroke="#000000" stroke-width="5" stroke-linecap="round" stroke-linejoin="round" d="M567.871,152.643
							c0.134,0.232,0.469-0.514,0.574-0.332c3.168,5.487,40.135-3.185,42.381,0.705c0.061,0.107,2.33-1.744,2.503-1.445"/>
						<path fill="none" stroke="#000000" stroke-width="5" stroke-linecap="round" stroke-linejoin="round" d="M552.523,155.288
							c0.08,0.138,14.078-8.296,14.151-8.17c0.566,0.981-7.374,18.877-5.983,21.286c0.196,0.339,3.859-2.412,3.938-2.274
							c0.146,0.252,1.832,4.69,2.044,5.057c0.161,0.278,2.966-1.752,2.982-1.722c0.024,0.042-8.416,32.289-5.853,36.728
							c0.074,0.129,4.648-3.378,4.949-2.857c0.806,1.396-8.067,18.808-8.04,18.855c0.209,0.363,3.72-2.655,3.939-2.274
							c0.383,0.664-3.968,6.063-3.604,6.695c0.095,0.163,9.957-6.423,10.25-5.917c0.604,1.048-6.558,6.546-6.012,7.493
							c0.209,0.361,5.597-3.733,5.813-3.356c2.165,3.75-13.007,30.854-10.372,35.417c0.217,0.377,3.768-2.574,3.939-2.274
							c0.021,0.034-6.064,25.284-3.93,28.982c0.246,0.425,3.939-2.278,3.941-2.275c1.9,3.291,35.573,8.524,36.259,9.712
							c0.149,0.259,0.034-0.209,0.116-0.067c0.279,0.485,7.509,7.316,8.28,8.653c0.156,0.271,3.864-2.413,3.942-2.276
							c1.974,3.418-13.821,30.984-12.289,33.638c0.308,0.533,17.766-10.297,17.783-10.268c1.154,2-11.496,25.881-11.32,26.185
							c0.043,0.074,17.99-11.257,18.367-10.604c1.11,1.924,14.467,4.318,14.757,4.82c0.341,0.59,0.093-0.201,0.157-0.09
							c0.717,1.241,24.119,2.622,24.521,3.318c0.007,0.012,11.185-6.584,11.239-6.489c0.184,0.317-12.905,8.594-12.231,9.761
							c0.189,0.328,13.522-8.491,13.819-7.979c0.24,0.417,37.322-1.719,38.239-0.13c0.134,0.231,0.21-0.175,0.232-0.135"/>
						<path fill="none" stroke="#000000" stroke-width="5" stroke-linecap="round" stroke-linejoin="round" d="M706.625,296.512
							c0.11,0.19,2.393-1.629,2.5-1.443c0.943,1.633-10.584,13.503-9.252,15.812c0.295,0.51,8.31-5.323,8.537-4.929
							c0.096,0.165-1.956,4.286-1.676,4.772c0.213,0.368,4.207-3.017,4.461-2.575c1.518,2.627-0.358,25.254,0.274,26.35
							c0.29,0.503,1.787-1.262,1.887-1.089c0.29,0.501-4.346,7.307-4.28,7.42c0.18,0.311,5.81-3.998,6.088-3.515"/>
						<path fill="none" stroke="#000000" stroke-width="5" stroke-linecap="round" stroke-linejoin="round" d="M704.427,303.997
							c0.383,0.663,19.287-12.031,19.675-11.359c0.021,0.035-5.963,6.396-5.896,6.513c0.091,0.158,7.026-4.2,7.088-4.093
							c0.138,0.239-11.165,5.719-10.257,7.292c0.462,0.799,8.583-5.563,8.847-5.107c1.484,2.571,35.515-5.535,37.55-2.01
							c0.287,0.498,1.313-1.721,1.73-0.998c0.232,0.402-6.839,4.548-6.725,4.747c0.26,0.449,6.246-4.963,6.833-3.945
							c0.169,0.293-1.141,3.848-0.905,4.257c0.144,0.247,9.367-6.082,9.658-5.576c1.1,1.903,31.612,8.767,31.894,9.255
							c0.036,0.062,3.801-2.52,3.941-2.275c0.218,0.378-4.759,14.242-3.923,15.69c0.227,0.394,3.859-2.409,3.938-2.273
							c0.434,0.75,3.65,9.61,3.709,9.712c0.307,0.532,1.441-1.405,1.689-0.976c2.092,3.623-17.754,20.151-15.982,23.22
							c0.081,0.141,17.628-10.507,17.771-10.26"/>
						<path fill="none" stroke="#000000" stroke-width="5" stroke-linecap="round" stroke-linejoin="round" d="M761.495,347.778
							c0.468,0.81,2.479-2.547,2.963-1.711c1.155,2.002,40.231,0.284,40.95,1.53c0.097,0.167,2.387-1.647,2.504-1.445"/>
						<path fill="none" stroke="#000000" stroke-width="5" stroke-linecap="round" stroke-linejoin="round" d="M755.271,345.156
							c0.201,0.349,2.293-1.811,2.504-1.445c1.512,2.618-7.788,25.739-7.02,27.07c0.251,0.434,12.471-7.969,12.804-7.393
							c2.031,3.519-9.361,26.088-8.48,27.613c0.029,0.052,8.625-5.641,8.911-5.145"/>
						<path fill="none" stroke="#000000" stroke-width="5" stroke-linecap="round" stroke-linejoin="round" d="M463.394,150.577
							c0.015,0.026,2.476-1.496,2.505-1.446c0.078,0.136-1.127,14.928-0.53,15.96c0.009,0.015,8.317-5.126,8.457-4.883
							c2.605,4.512-18.517,34.854-16.551,38.259c0.083,0.143,10.217-6.321,10.399-6.004c2.456,4.252-12.816,34.639-9.98,39.549
							c0.13,0.227,6.665-4.589,6.986-4.034c0.43,0.745-8.175,34.66-6.943,36.793c0.061,0.104,4.497-3.004,4.674-2.698
							c0.436,0.754-2.12,17.981-0.833,20.21c0.064,0.112,1.219-1.452,1.543-0.891c0.284,0.492-0.202,10.081,0.331,11.004
							c0.117,0.202,3.743-2.616,3.94-2.275c1.602,2.774,24.354,6.199,25.995,9.044c0.123,0.211,6.824-5.052,7.306-4.218
							c1.435,2.483,4.737,20.595,5.111,21.243c0.059,0.102,18.547-11.349,18.824-10.868c0.993,1.721-16.747,21.701-15.175,24.424
							c0.075,0.13,13.683-8.558,13.968-8.063c1.043,1.807-15.35,26.65-13.688,29.529c0.163,0.283,14.255-9.561,14.831-8.563
							c0.313,0.541,37.433,9.847,38.532,11.752c0.267,0.461,1.337-1.22,1.531-0.884c0.659,1.143-2.442,18.176-1.039,20.607
							c0.289,0.5,8.442-5.294,8.624-4.979c1.684,2.917,11.545,25.67,12.184,26.775c0.342,0.593,13.498-7.878,13.535-7.814
							c0.056,0.098,16.802,8.245,17.148,8.847c0.306,0.528,4.295-3.073,4.552-2.628c2.715,4.701,43.028-0.069,44.19,1.943
							c0.309,0.535,6.762-4.058,6.828-3.942c2.256,3.907,34.646,8.266,34.833,8.589c0.514,0.89,13.454-8.317,13.692-7.905
							c0.196,0.341,6.103,3.427,6.5,4.115c0.328,0.568,0.102-0.875,0.455-0.263c0.281,0.486,29.04-4.818,30.885-1.623
							c0.115,0.2,0.82-0.915,1.012-0.584c0.063,0.11-5.938,3.752-5.705,4.153c0.173,0.3,0.033-0.185,0.104-0.061"/>
						<path fill="none" stroke="#000000" stroke-width="5" stroke-linecap="round" stroke-linejoin="round" d="M477.559,148.613
							c0.123,0.215,4.578-3.043,4.752-2.744c0.328,0.568,9.903,1.414,10.406,2.286c0.188,0.324,6.512-4.92,7.014-4.049
							c0.898,1.555,12.755,7.095,13.803,8.911c0.086,0.148,2.453-1.533,2.504-1.445"/>
						<path fill="none" stroke="#000000" stroke-width="5" stroke-linecap="round" stroke-linejoin="round" d="M510.859,102.61
							c0.076,0.131,0.908-0.75,1.006-0.581c0.049,0.084,0.128,0.747,0.177,0.831c0.216,0.375,4.021-2.555,4.122-2.38
							c1.241,2.15-4.237,25.948-4.093,26.199c0.188,0.325,3.616-2.819,3.933-2.271c0.589,1.02-7.586,21.391-6.244,23.716
							c0.221,0.382,0.607-0.952,0.868-0.501c0,0,0.346,0.578,0.38,0.636c0.001,0.002,3.66-2.794,3.955-2.284"/>
						<path fill="none" stroke="#000000" stroke-width="5" stroke-linecap="round" stroke-linejoin="round" d="M525.725,100.242
							c0.291,0.503,5.583-4.059,5.945-3.432c0.235,0.409,28.373,3.912,30.479,7.559c0.194,0.336,2.348-1.716,2.504-1.446"/>
						<path fill="none" stroke="#000000" stroke-width="5" stroke-linecap="round" stroke-linejoin="round" d="M567.503,49.381
							c0.167,0.29,2.592-1.96,2.793-1.612c1.266,2.192-9.911,18.619-9.658,19.056c0.16,0.278,3.77-2.636,3.969-2.292
							c0.464,0.803-5.898,17.395-4.796,19.305c0.004,0.007,0.447-0.275,0.455-0.263c0.635,1.099,2.243,12.09,3.238,13.813
							c0.184,0.319,8.652-5.776,8.99-5.191"/>
					</g>
				</g>
			</g>
		</g>
	</g>
</g>
<g>
	
		<image overflow="visible" opacity="0.75" width="3806" height="909" xlink:href="1B8E4F2C.png"  transform="matrix(0.24 0 0 0.24 27.6152 110.5576)">
	</image>
	<g>
		<g>
			<path fill="#FFFFFF" stroke="#000000" stroke-width="3" stroke-miterlimit="10" d="M137.406,131.202v-11.145h66.861v11.145
				H181.98v66.86h-22.287v-66.86H137.406z"/>
			<path fill="#FFFFFF" stroke="#000000" stroke-width="3" stroke-miterlimit="10" d="M215.411,186.919v-66.861h22.287v66.861h33.43
				v-66.861h22.287v66.861h-11.144v11.144h-55.717v-11.144H215.411z"/>
			<path fill="#FFFFFF" stroke="#000000" stroke-width="3" stroke-miterlimit="10" d="M326.846,120.058v11.145h11.144v11.143h11.144
				v-11.143h11.144v-11.145h22.287v78.005h-22.287v-33.431h-11.144v11.144h-11.144v-11.144h-11.144v33.431h-22.287v-78.005H326.846z
				"/>
			<path fill="#FFFFFF" stroke="#000000" stroke-width="3" stroke-miterlimit="10" d="M460.567,120.058v11.145h11.144v22.287
				h-11.144v11.143h11.144v22.287h-11.144v11.144h-66.86v-78.005H460.567z M415.994,153.489h33.43v-22.287h-33.43V153.489z
				 M415.994,186.919h33.43v-22.287h-33.43V186.919z"/>
			<path fill="#FFFFFF" stroke="#000000" stroke-width="3" stroke-miterlimit="10" d="M505.142,120.058v66.861h55.718v11.144
				h-78.005v-78.005H505.142z"/>
			<path fill="#FFFFFF" stroke="#000000" stroke-width="3" stroke-miterlimit="10" d="M605.434,186.919v-55.717h-22.287v-11.145
				h66.861v11.145h-22.287v55.717h22.287v11.144h-66.861v-11.144H605.434z"/>
			<path fill="#FFFFFF" stroke="#000000" stroke-width="3" stroke-miterlimit="10" d="M683.438,120.058v11.145h11.144v11.143h11.144
				v11.145h11.144v-33.432h22.286v78.005h-22.286v-11.144h-11.144v-11.144h-11.144v-11.144h-11.144v33.431H661.15v-78.005H683.438z"
				/>
			<path fill="#FFFFFF" stroke="#000000" stroke-width="3" stroke-miterlimit="10" d="M761.441,186.919v-11.144h-11.144v-33.431
				h11.144v-11.143h11.144v-11.145h55.718v11.145h-44.574v11.143h-11.144v33.431h11.144v11.144h22.287v-22.287h-11.144v-11.143
				h33.431v44.573h-55.718v-11.144H761.441z"/>
			<path fill="#FFFFFF" stroke="#000000" stroke-width="3" stroke-miterlimit="10" d="M48.259,293.897v-11.145H37.115v-33.43h11.144
				v-11.145h11.144v-11.143h44.573v11.143h11.144v11.145H92.832v-11.145H70.545v11.145H59.402v33.43h11.143v11.145h22.287v-11.145
				h22.287v11.145h-11.144v11.143H59.402v-11.143H48.259z"/>
			<path fill="#FFFFFF" stroke="#000000" stroke-width="3" stroke-miterlimit="10" d="M137.406,249.323v-11.145h11.144v-11.143
				h33.431v11.143h11.144v11.145h11.144v55.717H181.98v-22.287H148.55v22.287h-22.287v-55.717H137.406z M148.55,271.61h33.431
				v-22.287h-11.144v-11.145h-11.144v11.145H148.55V271.61z"/>
			<path fill="#FFFFFF" stroke="#000000" stroke-width="3" stroke-miterlimit="10" d="M237.698,227.036v66.861h55.717v11.143
				h-78.004v-78.004H237.698z"/>
			<path fill="#FFFFFF" stroke="#000000" stroke-width="3" stroke-miterlimit="10" d="M315.702,293.897v-11.145h-11.144v-33.43
				h11.144v-11.145h11.144v-11.143h44.574v11.143h11.144v11.145h-22.287v-11.145h-22.287v11.145h-11.144v33.43h11.144v11.145h22.287
				v-11.145h22.287v11.145H371.42v11.143h-44.574v-11.143H315.702z"/>
			<path fill="#FFFFFF" stroke="#000000" stroke-width="3" stroke-miterlimit="10" d="M393.707,293.897v-66.861h22.287v66.861h33.43
				v-66.861h22.287v66.861h-11.144v11.143h-55.717v-11.143H393.707z"/>
			<path fill="#FFFFFF" stroke="#000000" stroke-width="3" stroke-miterlimit="10" d="M505.142,227.036v66.861h55.718v11.143
				h-78.005v-78.004H505.142z"/>
			<path fill="#FFFFFF" stroke="#000000" stroke-width="3" stroke-miterlimit="10" d="M583.146,249.323v-11.145h11.144v-11.143
				h33.431v11.143h11.144v11.145h11.144v55.717h-22.287v-22.287H594.29v22.287h-22.287v-55.717H583.146z M594.29,271.61h33.431
				v-22.287h-11.144v-11.145h-11.144v11.145H594.29V271.61z"/>
			<path fill="#FFFFFF" stroke="#000000" stroke-width="3" stroke-miterlimit="10" d="M672.294,238.179v-11.143h66.86v11.143
				h-22.286v66.861h-22.287v-66.861H672.294z"/>
			<path fill="#FFFFFF" stroke="#000000" stroke-width="3" stroke-miterlimit="10" d="M750.298,293.897v-55.719h11.144v-11.143
				h55.718v11.143h11.144v55.719h-11.144v11.143h-55.718v-11.143H750.298z M772.585,293.897h33.431v-55.719h-33.431V293.897z"/>
			<path fill="#FFFFFF" stroke="#000000" stroke-width="3" stroke-miterlimit="10" d="M906.308,227.036v11.143h11.144v33.432
				h-22.287v11.143h11.144v11.145h11.144v11.143h-33.431v-11.143h-11.144v-11.145h-11.144v22.287h-22.287v-78.004H906.308z
				 M861.733,271.61h22.287v-11.145h11.144v-22.287h-33.431V271.61z"/>
		</g>
	</g>
</g>
</svg>
